<?xml version="1.0" encoding="iso-8859-1"?>
<!-- Generator: Adobe Illustrator 21.0.0, SVG Export Plug-In . SVG Version: 6.00 Build 0)  -->
<svg version="1.1" id="Capa_1" xmlns="http://www.w3.org/2000/svg" xmlns:xlink="http://www.w3.org/1999/xlink" x="0px" y="0px"
	 viewBox="0 0 512.001 512.001" style="enable-background:new 0 0 512.001 512.001;" xml:space="preserve">
<g>
	<path style="fill:#CCCCCC;" d="M162.74,70.914c-4.142,0-7.5-3.358-7.5-7.5V7.5c0-4.142,3.358-7.5,7.5-7.5
		c4.142,0,7.5,3.358,7.5,7.5v55.914C170.24,67.556,166.882,70.914,162.74,70.914z"/>
	<path style="fill:#CCCCCC;" d="M162.74,323.997c-4.142,0-7.5-3.358-7.5-7.5v-55.914c0-4.142,3.358-7.5,7.5-7.5
		c4.142,0,7.5,3.358,7.5,7.5v55.914C170.24,320.639,166.882,323.997,162.74,323.997z"/>
	<path style="fill:#CCCCCC;" d="M93.029,99.788c-1.919,0-3.839-0.732-5.303-2.197L48.189,58.055c-2.929-2.929-2.929-7.677,0-10.606
		c2.929-2.929,7.678-2.929,10.606,0l39.537,39.537c2.929,2.929,2.929,7.677,0,10.606C96.868,99.056,94.949,99.788,93.029,99.788z"/>
	<path style="fill:#CCCCCC;" d="M64.154,169.499H8.24c-4.142,0-7.5-3.358-7.5-7.5s3.358-7.5,7.5-7.5h55.914
		c4.142,0,7.5,3.358,7.5,7.5S68.296,169.499,64.154,169.499z"/>
	<path style="fill:#CCCCCC;" d="M317.238,169.499h-55.914c-4.142,0-7.5-3.358-7.5-7.5s3.358-7.5,7.5-7.5h55.914
		c4.142,0,7.5,3.358,7.5,7.5S321.38,169.499,317.238,169.499z"/>
	<path style="fill:#CCCCCC;" d="M53.492,278.745c-1.919,0-3.839-0.732-5.303-2.197c-2.929-2.929-2.929-7.678,0-10.606l39.537-39.537
		c2.929-2.929,7.678-2.929,10.606,0c2.929,2.929,2.929,7.678,0,10.606l-39.537,39.537C57.331,278.013,55.412,278.745,53.492,278.745
		z"/>
	<path style="fill:#CCCCCC;" d="M232.449,99.788c-1.919,0-3.839-0.732-5.303-2.197c-2.929-2.929-2.929-7.677,0-10.606l39.537-39.537
		c2.929-2.929,7.678-2.929,10.606,0c2.929,2.929,2.929,7.677,0,10.606l-39.537,39.537C236.288,99.056,234.369,99.788,232.449,99.788
		z"/>
</g>
<path style="fill:#A6E2E3;" d="M507.45,491.63l-16.56,16.56c-5.081,5.081-13.319,5.081-18.4,0L209.378,245.078v-0.013v-33.063
	l34.96-1.884L507.45,473.229C512.531,478.311,512.531,486.549,507.45,491.63z"/>
<path style="fill:#FFA638;" d="M244.338,210.118l-34.96,34.947v0.013l-61.645-61.645c-9.654-9.654-9.654-25.306,0-34.96
	c4.827-4.827,11.15-7.247,17.473-7.247c6.336,0,12.659,2.42,17.486,7.247L244.338,210.118z"/>
<g>
</g>
<g>
</g>
<g>
</g>
<g>
</g>
<g>
</g>
<g>
</g>
<g>
</g>
<g>
</g>
<g>
</g>
<g>
</g>
<g>
</g>
<g>
</g>
<g>
</g>
<g>
</g>
<g>
</g>
</svg>
