<?xml version="1.0" encoding="iso-8859-1"?>
<!-- Generator: Adobe Illustrator 21.0.0, SVG Export Plug-In . SVG Version: 6.00 Build 0)  -->
<svg version="1.1" id="Capa_1" xmlns="http://www.w3.org/2000/svg" xmlns:xlink="http://www.w3.org/1999/xlink" x="0px" y="0px"
	 viewBox="0 0 512 512" style="enable-background:new 0 0 512 512;" xml:space="preserve">
<rect y="163.563" style="fill:#FFA638;" width="147.36" height="183.77"/>
<g>
	<rect x="206.6" y="163.563" style="fill:#A6E2E3;" width="305.4" height="183.77"/>
	<rect y="398.223" style="fill:#A6E2E3;" width="305.4" height="95.81"/>
	<rect x="359.3" y="398.223" style="fill:#A6E2E3;" width="152.7" height="95.81"/>
	<rect y="17.968" style="fill:#A6E2E3;" width="512" height="95.81"/>
</g>
<g>
	<path style="fill:#4D4D4D;" d="M253.001,235.995h212.584c4.143,0,7.5-3.358,7.5-7.5s-3.357-7.5-7.5-7.5H253.001
		c-4.142,0-7.5,3.358-7.5,7.5S248.859,235.995,253.001,235.995z"/>
	<path style="fill:#4D4D4D;" d="M465.586,274.889H253.001c-4.142,0-7.5,3.358-7.5,7.5s3.358,7.5,7.5,7.5h212.584
		c4.143,0,7.5-3.358,7.5-7.5S469.728,274.889,465.586,274.889z"/>
	<path style="fill:#4D4D4D;" d="M105.446,223.674c-2.929-2.929-7.678-2.929-10.606,0l-21.162,21.162l-21.162-21.162
		c-2.929-2.929-7.678-2.929-10.606,0c-2.929,2.929-2.929,7.678,0,10.606l21.162,21.162L41.91,276.604
		c-2.929,2.929-2.929,7.678,0,10.606c1.464,1.464,3.384,2.197,5.303,2.197s3.839-0.732,5.303-2.197l21.162-21.162L94.84,287.21
		c1.464,1.464,3.384,2.197,5.303,2.197s3.839-0.732,5.303-2.197c2.929-2.929,2.929-7.678,0-10.606l-21.161-21.162l21.162-21.162
		C108.376,231.353,108.376,226.604,105.446,223.674z"/>
</g>
<g>
</g>
<g>
</g>
<g>
</g>
<g>
</g>
<g>
</g>
<g>
</g>
<g>
</g>
<g>
</g>
<g>
</g>
<g>
</g>
<g>
</g>
<g>
</g>
<g>
</g>
<g>
</g>
<g>
</g>
</svg>
