<?xml version="1.0" encoding="iso-8859-1"?>
<!-- Generator: Adobe Illustrator 21.0.0, SVG Export Plug-In . SVG Version: 6.00 Build 0)  -->
<svg version="1.1" id="Capa_1" xmlns="http://www.w3.org/2000/svg" xmlns:xlink="http://www.w3.org/1999/xlink" x="0px" y="0px"
	 viewBox="0 0 512 512" style="enable-background:new 0 0 512 512;" xml:space="preserve">
<path style="fill:#4D4D4D;" d="M512,121.927v268.145c0,17.235-13.977,31.201-31.213,31.201H31.201
	C13.965,421.273,0,407.309,0,390.073V121.927c0-17.235,13.965-31.201,31.201-31.201h449.587C498.023,90.727,512,104.692,512,121.927
	z"/>
<path style="fill:#3B3B3B;" d="M480.787,90.727h-82.501c0.345,7.587,0.529,15.216,0.529,22.889
	c0,116.269-40.085,223.172-107.18,307.657h189.152c17.235,0,31.213-13.965,31.213-31.2V121.927
	C512,104.692,498.023,90.727,480.787,90.727z"/>
<path style="fill:#FFFFFF;" d="M87.122,366.796c-4.142,0-7.5-3.358-7.5-7.5V204.802c0-4.142,3.358-7.5,7.5-7.5s7.5,3.358,7.5,7.5
	v154.494C94.622,363.438,91.264,366.796,87.122,366.796z"/>
<path style="fill:#FFA638;" d="M87.122,152.71c14.397,0,26.05,11.654,26.05,26.038c0,14.397-11.654,26.05-26.05,26.05
	c-14.385,0-26.05-11.654-26.05-26.05C61.072,164.363,72.737,152.71,87.122,152.71z"/>
<g>
	<path style="fill:#FFFFFF;" d="M199.707,366.796c-4.142,0-7.5-3.358-7.5-7.5V256.304c0-4.142,3.358-7.5,7.5-7.5s7.5,3.358,7.5,7.5
		v102.992C207.207,363.438,203.849,366.796,199.707,366.796z"/>
	<path style="fill:#FFFFFF;" d="M199.707,211.703c-4.142,0-7.5-3.358-7.5-7.5v-51.502c0-4.142,3.358-7.5,7.5-7.5s7.5,3.358,7.5,7.5
		v51.502C207.207,208.345,203.849,211.703,199.707,211.703z"/>
</g>
<circle style="fill:#FFA638;" cx="199.71" cy="230.25" r="26.05"/>
<g>
	<path style="fill:#FFFFFF;" d="M312.281,366.796c-4.142,0-7.5-3.358-7.5-7.5v-51.502c0-4.142,3.358-7.5,7.5-7.5s7.5,3.358,7.5,7.5
		v51.502C319.781,363.438,316.423,366.796,312.281,366.796z"/>
	<path style="fill:#FFFFFF;" d="M312.281,263.205c-4.142,0-7.5-3.358-7.5-7.5V152.702c0-4.142,3.358-7.5,7.5-7.5s7.5,3.358,7.5,7.5
		v103.004C319.781,259.847,316.423,263.205,312.281,263.205z"/>
</g>
<path style="fill:#FFA638;" d="M312.281,307.801c-14.385,0-26.038-11.666-26.038-26.05s11.654-26.05,26.038-26.05
	c14.397,0,26.05,11.666,26.05,26.05S326.677,307.801,312.281,307.801z"/>
<path style="fill:#FFFFFF;" d="M424.866,314.695c-4.142,0-7.5-3.358-7.5-7.5V152.702c0-4.142,3.358-7.5,7.5-7.5s7.5,3.358,7.5,7.5
	v154.494C432.366,311.337,429.008,314.695,424.866,314.695z"/>
<circle style="fill:#FFA638;" cx="424.87" cy="333.25" r="26.05"/>
<g>
</g>
<g>
</g>
<g>
</g>
<g>
</g>
<g>
</g>
<g>
</g>
<g>
</g>
<g>
</g>
<g>
</g>
<g>
</g>
<g>
</g>
<g>
</g>
<g>
</g>
<g>
</g>
<g>
</g>
</svg>
