<?xml version="1.0" encoding="iso-8859-1"?>
<!-- Generator: Adobe Illustrator 21.0.0, SVG Export Plug-In . SVG Version: 6.00 Build 0)  -->
<svg version="1.1" id="Capa_1" xmlns="http://www.w3.org/2000/svg" xmlns:xlink="http://www.w3.org/1999/xlink" x="0px" y="0px"
	 viewBox="0 0 512 512" style="enable-background:new 0 0 512 512;" xml:space="preserve">
<path style="fill:#EBEBEB;" d="M175.588,377.112v31.476v22.994c0,8.013,1.169,15.756,3.361,23.056
	C188.857,487.812,219.606,512,256.005,512c22.207,0,42.308-8.999,56.858-23.561c3.754-3.754,7.152-7.891,10.106-12.334
	c8.494-12.74,13.442-28.054,13.442-44.523v-54.47L175.588,377.112L175.588,377.112z"/>
<g>
	<path style="fill:#CCCCCC;" d="M290.242,430.929c0,16.47-2.183,31.783-5.929,44.523c-1.303,4.443-2.802,8.58-4.458,12.334
		c-6.417,14.563-15.284,23.561-25.079,23.561c-1.036,0-2.344,0.171-3.878,0.476c0.796,0.05,1.595,0.09,2.397,0.121
		c0.9,0.03,1.802,0.056,2.709,0.056h0.001c5.552,0,10.972-0.563,16.206-1.634c1.309-0.268,2.606-0.567,3.89-0.897
		c11.904-3.063,22.729-8.798,31.828-16.509c1.703-1.443,3.356-2.942,4.933-4.52c2.741-2.741,5.287-5.69,7.614-8.81
		c0.133-0.179,0.265-0.358,0.396-0.538c0.719-0.98,1.422-1.974,2.096-2.987c7.382-11.073,12.081-24.091,13.186-38.121
		c0.012-0.152,0.025-0.303,0.036-0.455c0.144-1.964,0.22-3.947,0.22-5.948v-54.469l0,0h-46.169L290.242,430.929L290.242,430.929z"/>
	<path style="fill:#CCCCCC;" d="M175.588,377.112v31.476v22.994c0,8.013,1.169,15.756,3.361,23.056l144.021,21.468
		c8.494-12.74,13.442-28.054,13.442-44.523v-54.47L175.588,377.112L175.588,377.112z"/>
</g>
<path style="fill:#808080;" d="M290.242,430.929c0,14.405-1.67,27.925-4.595,39.613l37.322,5.563l0,0
	c7.382-11.073,12.081-24.091,13.186-38.121c0.012-0.152,0.025-0.303,0.036-0.455c0.144-1.964,0.22-3.947,0.22-5.948v-54.469l0,0
	h-46.169V430.929z"/>
<path style="fill:#FFA638;" d="M250.232,0.11C174.394,3.015,112.501,64.55,109.19,140.364c-1.354,30.712,6.746,59.443,21.603,83.557
	c28.472,46.173,44.794,98.796,44.794,153.056v0.135L256,404.347l80.411-27.235v-0.135c0-53.115,14.119-105.665,43.009-150.249
	c14.894-22.969,23.536-50.346,23.536-79.766C402.956,63.885,334.023-3.09,250.232,0.11z"/>
<path style="fill:#ED8300;" d="M351.905,283.302c6.861-19.808,16.013-38.824,27.515-56.574
	c14.894-22.969,23.536-50.346,23.536-79.766c0-0.07-0.003-0.14-0.003-0.211c-0.002-1.198-0.016-2.392-0.046-3.583
	c-0.011-0.442-0.034-0.881-0.049-1.322c-0.028-0.818-0.054-1.637-0.095-2.452c-0.026-0.515-0.064-1.027-0.095-1.54
	c-0.045-0.737-0.087-1.475-0.143-2.209c-0.042-0.543-0.094-1.083-0.141-1.625c-0.061-0.7-0.12-1.401-0.191-2.098
	c-0.057-0.559-0.124-1.115-0.187-1.673c-0.076-0.674-0.151-1.349-0.236-2.02c-0.073-0.569-0.154-1.135-0.233-1.701
	c-0.091-0.656-0.182-1.313-0.282-1.966c-0.087-0.572-0.183-1.141-0.277-1.71c-0.106-0.643-0.212-1.287-0.327-1.927
	c-0.102-0.572-0.212-1.142-0.321-1.711c-0.121-0.634-0.243-1.267-0.372-1.897c-0.117-0.57-0.24-1.137-0.363-1.705
	c-0.136-0.625-0.273-1.249-0.417-1.871c-0.131-0.569-0.268-1.135-0.406-1.701c-0.15-0.614-0.302-1.228-0.459-1.839
	c-0.146-0.567-0.296-1.133-0.449-1.698c-0.163-0.604-0.33-1.207-0.501-1.808c-0.16-0.565-0.324-1.128-0.491-1.69
	c-0.177-0.596-0.359-1.191-0.544-1.784c-0.174-0.56-0.351-1.119-0.531-1.677c-0.191-0.588-0.387-1.174-0.585-1.759
	c-0.188-0.556-0.378-1.111-0.572-1.664c-0.204-0.58-0.415-1.157-0.626-1.733c-0.202-0.552-0.405-1.103-0.613-1.652
	c-0.217-0.57-0.44-1.136-0.663-1.702c-0.217-0.549-0.433-1.099-0.656-1.645c-0.228-0.559-0.464-1.113-0.699-1.668
	c-0.231-0.546-0.46-1.093-0.698-1.635c-0.24-0.547-0.487-1.09-0.733-1.634c-0.246-0.544-0.49-1.089-0.742-1.63
	c-0.249-0.533-0.506-1.06-0.761-1.589c-0.262-0.544-0.521-1.09-0.79-1.631c-0.256-0.515-0.522-1.025-0.784-1.536
	c-0.28-0.547-0.556-1.095-0.843-1.638c-0.257-0.488-0.525-0.969-0.788-1.454c-0.304-0.56-0.603-1.122-0.914-1.677
	c-0.231-0.414-0.473-0.822-0.708-1.233c-1.311-2.291-2.682-4.543-4.111-6.754c-0.216-0.334-0.426-0.672-0.645-1.004
	c-0.397-0.604-0.806-1.2-1.212-1.797c-0.255-0.376-0.506-0.756-0.765-1.13c-0.401-0.579-0.812-1.15-1.221-1.722
	c-0.274-0.385-0.545-0.772-0.824-1.154c-0.41-0.563-0.83-1.118-1.247-1.675c-0.287-0.383-0.572-0.768-0.863-1.147
	c-0.421-0.55-0.85-1.092-1.279-1.636c-0.299-0.379-0.596-0.76-0.898-1.136c-0.433-0.538-0.874-1.07-1.314-1.602
	c-0.307-0.371-0.613-0.743-0.923-1.111c-0.447-0.529-0.9-1.052-1.354-1.575c-0.315-0.362-0.629-0.725-0.947-1.084
	c-0.461-0.52-0.927-1.034-1.396-1.548c-0.32-0.351-0.64-0.702-0.964-1.05c-0.478-0.514-0.96-1.023-1.446-1.53
	c-0.322-0.337-0.645-0.674-0.97-1.007c-0.495-0.508-0.995-1.012-1.498-1.513c-0.324-0.323-0.649-0.644-0.975-0.964
	c-0.514-0.503-1.031-1.001-1.552-1.497c-0.324-0.308-0.65-0.615-0.978-0.92c-0.531-0.496-1.066-0.989-1.604-1.476
	c-0.324-0.294-0.651-0.586-0.978-0.877c-0.552-0.491-1.106-0.979-1.666-1.462c-0.319-0.276-0.641-0.549-0.963-0.822
	c-0.575-0.488-1.151-0.973-1.734-1.452c-0.312-0.257-0.627-0.51-0.942-0.764c-0.601-0.486-1.204-0.97-1.813-1.448
	c-0.297-0.233-0.598-0.462-0.897-0.692c-0.634-0.489-1.269-0.976-1.911-1.454c-0.274-0.204-0.551-0.404-0.826-0.606
	c-0.674-0.495-1.35-0.989-2.033-1.473c-0.238-0.169-0.479-0.333-0.718-0.5c-0.727-0.509-1.456-1.016-2.193-1.511
	c-0.176-0.118-0.354-0.233-0.53-0.35c-0.806-0.538-1.615-1.072-2.432-1.594c-0.054-0.034-0.109-0.068-0.163-0.102
	c-6.681-4.255-13.729-7.983-21.085-11.13c-0.118-0.05-0.234-0.103-0.352-0.153c-0.91-0.386-1.826-0.76-2.746-1.129
	c-0.185-0.074-0.369-0.151-0.555-0.225c-0.883-0.35-1.771-0.688-2.662-1.021c-0.224-0.084-0.448-0.17-0.672-0.253
	c-0.869-0.32-1.742-0.628-2.618-0.932c-0.251-0.087-0.502-0.176-0.754-0.262c-0.86-0.293-1.725-0.575-2.592-0.853
	c-0.272-0.087-0.544-0.176-0.818-0.261c-0.858-0.269-1.72-0.528-2.584-0.781c-0.285-0.083-0.569-0.167-0.855-0.249
	c-0.861-0.246-1.725-0.484-2.592-0.715c-0.293-0.078-0.586-0.156-0.88-0.233c-0.866-0.225-1.736-0.442-2.609-0.652
	c-0.297-0.071-0.594-0.142-0.891-0.211c-0.876-0.205-1.755-0.402-2.637-0.591c-0.296-0.063-0.592-0.125-0.888-0.187
	c-0.889-0.185-1.781-0.363-2.675-0.531c-0.29-0.055-0.581-0.107-0.872-0.16c-0.906-0.165-1.813-0.323-2.725-0.472
	c-0.281-0.046-0.562-0.088-0.844-0.133c-0.927-0.145-1.855-0.284-2.787-0.412c-0.262-0.036-0.524-0.069-0.786-0.103
	c-0.957-0.126-1.915-0.246-2.877-0.353c-0.231-0.026-0.464-0.048-0.695-0.073c-0.995-0.106-1.992-0.207-2.994-0.293
	c-0.189-0.016-0.379-0.029-0.568-0.044c-1.047-0.086-2.096-0.166-3.149-0.23c-0.118-0.007-0.237-0.012-0.355-0.019
	c-1.125-0.066-2.254-0.123-3.386-0.163c32.719,7.457,58.262,70.064,58.262,146.207c0,29.42-3.812,56.796-10.381,79.765
	c-12.743,44.585-18.971,97.134-18.971,150.25v0.135v16.29l46.169-15.637v-0.135c0-1.66,0.014-3.319,0.042-4.978
	c0.055-3.317,0.166-6.631,0.331-9.94c0.249-4.964,0.622-9.916,1.121-14.851c0.665-6.58,1.552-13.13,2.663-19.635
	c0.278-1.626,0.57-3.25,0.875-4.87c0.612-3.241,1.279-6.469,2.003-9.684s1.504-6.416,2.34-9.6c1.534-5.843,3.267-11.63,5.182-17.355
	C351.275,285.141,351.587,284.221,351.905,283.302z"/>
<polygon style="fill:#808080;" points="336.411,377.112 336.411,431.582 175.588,408.588 175.588,377.112 "/>
<polygon style="fill:#616161;" points="290.242,424.981 336.411,431.582 336.411,377.112 290.242,377.112 "/>
<path style="fill:#FFFFFF;" d="M263.5,178.435V93.224c19.974,3.556,35.19,21.037,35.19,42.017c0,4.142,3.357,7.5,7.5,7.5
	s7.5-3.358,7.5-7.5c0-29.268-21.913-53.497-50.19-57.187V62.237c0-4.142-3.357-7.5-7.5-7.5c-4.143,0-7.5,3.358-7.5,7.5v15.817
	c-28.278,3.69-50.19,27.919-50.19,57.187s21.913,53.497,50.19,57.187v85.211c-19.974-3.556-35.19-21.037-35.19-42.017
	c0-4.142-3.357-7.5-7.5-7.5s-7.5,3.358-7.5,7.5c0,29.268,21.913,53.497,50.19,57.187v15.817c0,4.142,3.357,7.5,7.5,7.5
	c4.143,0,7.5-3.358,7.5-7.5v-15.817c28.278-3.69,50.19-27.919,50.19-57.187S291.778,182.125,263.5,178.435z M213.31,135.241
	c0-20.98,15.216-38.461,35.19-42.017v84.035C228.526,173.702,213.31,156.221,213.31,135.241z M263.5,277.639v-84.034
	c19.974,3.556,35.19,21.037,35.19,42.017S283.474,274.083,263.5,277.639z"/>
<g>
</g>
<g>
</g>
<g>
</g>
<g>
</g>
<g>
</g>
<g>
</g>
<g>
</g>
<g>
</g>
<g>
</g>
<g>
</g>
<g>
</g>
<g>
</g>
<g>
</g>
<g>
</g>
<g>
</g>
</svg>
