<?xml version="1.0" encoding="UTF-8" standalone="no"?>
<svg
   xmlns:dc="http://purl.org/dc/elements/1.1/"
   xmlns:cc="http://creativecommons.org/ns#"
   xmlns:rdf="http://www.w3.org/1999/02/22-rdf-syntax-ns#"
   xmlns:svg="http://www.w3.org/2000/svg"
   xmlns="http://www.w3.org/2000/svg"
   xmlns:sodipodi="http://sodipodi.sourceforge.net/DTD/sodipodi-0.dtd"
   xmlns:inkscape="http://www.inkscape.org/namespaces/inkscape"
   inkscape:version="1.0 (6e3e5246a0, 2020-05-07)"
   sodipodi:docname="book.svg"
   viewBox="0 0 2300 2326"
   height="2326"
   width="2300"
   id="svg1047"
   version="1.1">
  <metadata
     id="metadata1053">
    <rdf:RDF>
      <cc:Work
         rdf:about="">
        <dc:format>image/svg+xml</dc:format>
        <dc:type
           rdf:resource="http://purl.org/dc/dcmitype/StillImage" />
        <dc:title></dc:title>
      </cc:Work>
    </rdf:RDF>
  </metadata>
  <defs
     id="defs1051" />
  <sodipodi:namedview
     inkscape:current-layer="g1055"
     inkscape:window-maximized="1"
     inkscape:window-y="34"
     inkscape:window-x="0"
     inkscape:cy="450.37008"
     inkscape:cx="1413.0578"
     inkscape:zoom="0.69931873"
     showgrid="false"
     id="namedview1049"
     inkscape:window-height="1010"
     inkscape:window-width="1920"
     inkscape:pageshadow="2"
     inkscape:pageopacity="0"
     guidetolerance="10"
     gridtolerance="10"
     objecttolerance="10"
     borderopacity="1"
     bordercolor="#666666"
     pagecolor="#ffffff" />
  <g
     id="g1055"
     inkscape:label="Image"
     inkscape:groupmode="layer">
    <path
       id="path1620"
       d="m 1065.4696,2325.7075 c -2.75,-0.2066 -12.2,-0.8654 -21,-1.4639 -94.76481,-6.4452 -186.62391,-34.6583 -246.50001,-75.7086 -42.7592,-29.3152 -63.7172,-57.0116 -72.2205,-95.4411 l -2.2795,-10.3023 v -677.5 -677.49999 l 2.7035,-9.79396 c 6.2208,-22.53581 16.1828,-39.43222 33.1557,-56.23525 12.246,-12.12336 25.9628,-22.01889 42.7519,-30.84184 5.7139,-3.00273 88.6889,-39.29378 184.3889,-80.64677 95.70001,-41.35298 182.10001,-78.69461 192.00001,-82.98138 41.5748,-18.00219 51.5453,-22.31487 104,-44.98451 78.7466,-34.03235 354.1576,-153.12796 385.1674,-166.55739 31.3254,-13.56613 34.1291,-14.4589 45.4088,-14.4589 18.961,0 35.5177,9.27646 46.4048,26 5.0312,7.72834 8.9442,17.265 10.4356,25.43366 1.0608,5.81008 1.6585,160.56634 0.6201,160.56634 -0.3928,0 -57.0151,-24.06003 -102.1191,-43.39259 -7.1953,-3.08408 -13.7029,-5.60741 -14.4612,-5.60741 -0.7584,0 -10.6213,4.00697 -21.9176,8.90437 -11.2963,4.8974 -35.8388,15.51638 -54.5388,23.59773 -18.7,8.08135 -42.1,18.20665 -52,22.50066 -36.3646,15.77272 -514.8037,222.88624 -641.45781,277.68342 -32.0484,13.8658 -29.5674,12.55366 -27.33,14.45378 9.707,8.24367 41.4933,23.48322 67.7335,32.47402 49.9762,17.12358 102.00771,25.67927 156.55431,25.74267 37.2013,0.0432 60.7908,-2.49852 91.5,-9.85908 17.8012,-4.2667 30.3572,-8.6561 53.5,-18.70285 10.175,-4.41717 28.175,-12.2014 40,-17.29829 11.825,-5.0969 33.425,-14.4395 48,-20.76135 14.575,-6.32184 48.55,-21.04035 75.5,-32.70779 26.95,-11.66744 55.525,-24.04959 63.5,-27.51589 33.4995,-14.56041 40.0404,-17.39859 72,-31.24137 18.425,-7.9805 36.425,-15.75221 40,-17.27047 3.575,-1.51825 16.85,-7.26118 29.5,-12.76205 23.8506,-10.37148 278.6183,-120.78264 330.5,-143.23203 79.8894,-34.5684 135.6053,-58.6852 145.9234,-63.16336 14.1898,-6.15852 20.5395,-7.84212 29.5766,-7.84212 13.783,0 26.2305,5.07457 36.8772,15.03403 3.5581,3.32845 7.8539,8.20933 9.5461,10.8464 l 3.0767,4.79466 v 697.5524 697.5525 l -4.3399,5.8954 c -4.9944,6.7843 -12.1416,13.1875 -18.6432,16.7024 -2.4843,1.3431 -92.2669,40.4622 -199.5169,86.9315 -107.25,46.4692 -240.9,104.3918 -297,128.7169 -56.1,24.325 -115.275,49.9665 -131.5,56.981 -16.225,7.0146 -54.925,23.7817 -86,37.2604 -181.9114,78.9036 -174.7155,75.9251 -202,83.6109 -38.0371,10.7146 -74.483,15.8238 -118,16.5419 -12.375,0.2042 -24.75,0.2022 -27.5,0 z M 487.46954,2025.2281 c -109.40915,-6.451 -204.76296,-34.9385 -267.5,-79.9173 -45.3939,-32.5448 -64.95786,-63.2829 -69.02274,-108.4457 -0.77309,-8.5895 -0.99221,-204.6915 -0.75932,-679.5735 l 0.32736,-667.49999 2.13523,-8.5 c 10.15011,-40.40586 36.02322,-70.25309 80.07912,-92.37929 7.57342,-3.8036 145.93924,-63.95904 340.74035,-148.13909 C 613.76276,223.36118 642.95269,210.72259 909.46959,95.292668 1123.6019,2.5507841 1121.8585,3.2956101 1128.4207,1.7478581 c 24.0498,-5.672398 49.8073,7.863214 61.929,32.5437439 7.8383,15.959246 7.6663,13.59532 7.376,101.424818 l -0.2561,77.4939 -58.2283,-24.94762 -58.2282,-24.94763 -7.7718,3.39047 c -4.2745,1.86475 -31.1717,13.51315 -59.7717,25.88533 -28.60001,12.37218 -131.20001,56.79318 -228.00001,98.71334 -96.8,41.92016 -204.57505,88.59101 -239.50005,103.713 -34.925,15.122 -92.075,39.8689 -127,54.99313 -34.925,15.12423 -79.7,34.47755 -99.5,43.00738 -19.8,8.52983 -36.37627,15.8547 -36.83615,16.27749 -1.22168,1.12313 15.83079,11.38793 30.83615,18.56193 40.18899,19.21419 88.84445,32.38777 144.5,39.12373 18.31724,2.21693 79.51751,2.54723 96,0.51812 15.97414,-1.96653 38.02974,-5.99047 50.39651,-9.19462 20.853,-5.40286 24.96216,-7.05849 121.10354,-48.79431 12.65,-5.49148 38.3,-16.61155 57,-24.71128 18.7,-8.09973 45.925,-19.91246 60.5,-26.25052 14.575,-6.33806 29.425,-12.75985 33,-14.27065 3.575,-1.5108 16.85,-7.2449 29.5,-12.74244 135.45471,-58.86708 601.92731,-260.80664 604.92851,-261.87818 19.5352,-6.97484 42.7839,-0.85502 57.3666,15.10078 2.6852,2.93805 6.7512,8.93437 9.0355,13.32516 4.192,8.05751 8.5498,23.26854 7.9775,27.84553 -0.2823,2.25702 -9.7851,6.57308 -113.3081,51.46309 -62.15,26.94969 -153.5,66.57295 -203,88.05168 -49.5,21.47873 -108.45,47.05752 -131,56.84176 -39.4255,17.10637 -83.8477,36.36194 -131.5,57.00102 -30.72361,13.30692 -130.67481,56.68392 -162.50001,70.52203 -14.3,6.21786 -35.675,15.43118 -47.5,20.47403 -43.3801,18.4997 -65.5107,30.47587 -89.5,48.43363 -13.836,10.35721 -39.2185,35.16007 -48.2214,47.12015 -25.62947,34.04799 -39.44245,67.34853 -46.43894,111.95576 -0.99191,6.32409 -1.36841,136.83299 -1.79724,622.98899 l -0.54247,614.9891 -13.5,2.2415 c -42.69793,7.0896 -74.63305,9.2137 -108.5,7.2169 z"
       style="fill:#f4f4f4;fill-opacity:1" />
  </g>
</svg>
