<?xml version="1.0" encoding="UTF-8" standalone="no"?>
<svg
   xmlns:dc="http://purl.org/dc/elements/1.1/"
   xmlns:cc="http://creativecommons.org/ns#"
   xmlns:rdf="http://www.w3.org/1999/02/22-rdf-syntax-ns#"
   xmlns:svg="http://www.w3.org/2000/svg"
   xmlns="http://www.w3.org/2000/svg"
   xmlns:sodipodi="http://sodipodi.sourceforge.net/DTD/sodipodi-0.dtd"
   xmlns:inkscape="http://www.inkscape.org/namespaces/inkscape"
   version="1.1"
   id="svg1470"
   width="606.66669"
   height="438.66669"
   viewBox="0 0 606.66669 438.66669"
   sodipodi:docname="discord.svg"
   inkscape:version="1.0 (6e3e5246a0, 2020-05-07)">
  <metadata
     id="metadata1476">
    <rdf:RDF>
      <cc:Work
         rdf:about="">
        <dc:format>image/svg+xml</dc:format>
        <dc:type
           rdf:resource="http://purl.org/dc/dcmitype/StillImage" />
        <dc:title />
      </cc:Work>
    </rdf:RDF>
  </metadata>
  <defs
     id="defs1474" />
  <sodipodi:namedview
     inkscape:document-rotation="0"
     pagecolor="#ffffff"
     bordercolor="#666666"
     borderopacity="1"
     objecttolerance="10"
     gridtolerance="10"
     guidetolerance="10"
     inkscape:pageopacity="0"
     inkscape:pageshadow="2"
     inkscape:window-width="1920"
     inkscape:window-height="1010"
     id="namedview1472"
     showgrid="false"
     showborder="false"
     inkscape:zoom="0.97454398"
     inkscape:cx="280.30627"
     inkscape:cy="232.42947"
     inkscape:window-x="0"
     inkscape:window-y="34"
     inkscape:window-maximized="1"
     inkscape:current-layer="g1478" />
  <g
     inkscape:groupmode="layer"
     inkscape:label="Image"
     id="g1478">
    <path
       style="fill:#f4f4f4;fill-opacity:1;stroke-width:1.33333"
       d="m 151.25978,434.34011 c -2.2,-0.26898 -9.52151,-1.1291 -16.27001,-1.91138 C 83.639121,426.47616 32.278876,397.7843 6.6601545,360.73877 l -3.073558,-4.44447 1.560273,-26.88886 C 10.23375,241.74089 32.408485,154.42324 69.786181,74.874671 c 7.86615,-16.74104 8.70894,-17.63018 28.74456,-30.3254 32.140469,-20.36527 69.124169,-33.50993 109.156459,-38.7961197 12.00866,-1.58572 12.52284,-1.5456 15.25926,1.19082 1.55751,1.55752 2.56518,3.0522 2.23924,3.3215197 -0.32592,0.26932 -7.49258,2.76625 -15.92592,5.54876 -41.5258,13.70106 -74.37017,29.98802 -105.66667,52.39828 -5.683329,4.06963 -10.333329,7.85203 -10.333329,8.40534 0,0.5533 7.349999,-2.61948 16.333329,-7.05064 28.70184,-14.1576 60.01495,-25.15507 91.66667,-32.1942 31.60784,-7.02938 89.00662,-12.38339 116.66667,-10.88239 62.99343,3.41841 113.83022,16.04075 167.21066,41.51697 9.83253,4.69264 18.06906,8.34035 18.3034,8.106 0.61458,-0.61457 -19.97491,-15.5076 -30.28271,-21.90444 -19.70973,-12.23152 -52.03808,-27.14901 -80.32445,-37.06468 l -14.42643,-5.05712 3.81047,-3.8104597 3.81046,-3.81047 13.9493,1.48879 c 34.874,3.72205 75.45317,18.2580597 108.46355,38.8531297 18.61227,11.61215 20.52008,13.55517 27.10647,27.60672 32.00922,68.289309 53.93726,143.899389 62.28591,214.768149 1.07988,9.16667 2.6836,28.15877 3.56384,42.20466 l 1.60042,25.53797 -3.6251,6.1858 c -5.51251,9.40636 -26.14291,29.05986 -40.62401,38.70031 -20.78742,13.83875 -43.78186,23.70459 -68.39495,29.34508 -10.21893,2.34183 -42.12581,6.07635 -44.30304,5.18542 -1.93153,-0.7904 -31.98884,-38.47426 -31.76024,-39.81889 0.0977,-0.57486 3.65591,-2.20089 7.90707,-3.61338 10.78244,-3.58258 35.49667,-15.7343 45.06272,-22.15684 13.5944,-9.12716 34.53114,-29.16352 36.43159,-34.86488 0.27692,-0.83078 -2.70689,0.53046 -6.63071,3.02497 -19.86916,12.63149 -42.88132,23.13767 -75.13421,34.30245 -37.15781,12.8627 -72.49243,18.60064 -114.67485,18.62191 -43.40632,0.0219 -80.3898,-6.12407 -122.6585,-20.38347 -30.11485,-10.15928 -45.7203,-17.31354 -73.16713,-33.54324 -6.49892,-3.8429 -6.50007,-3.84305 -4.81303,-0.61917 3.25758,6.22505 23.91286,25.22971 36.21691,33.32271 14.84503,9.7643 23.73651,14.36214 36.95223,19.10822 5.42061,1.94666 10.73589,4.03199 11.81174,4.63407 1.5272,0.85467 -1.67965,5.59667 -14.62572,21.62716 -16.77184,20.76779 -17.51662,21.35751 -25.70833,20.35602 z m 71.8983,-127.12189 c 17.62134,-6.06263 30.70765,-21.16695 35.32149,-40.76835 2.48703,-10.56584 2.34436,-28.20346 -0.29065,-35.9333 -4.94999,-14.52083 -19.21071,-27.71479 -35.34032,-32.69673 -19.59535,-6.05238 -38.21663,-0.88673 -52.72795,14.62704 -20.39275,21.8015 -20.39275,58.33787 0,80.13937 14.64689,15.6587 34.29675,21.07972 53.03743,14.63197 z m 191.69558,-1.73776 c 19.72697,-9.19927 32.09034,-29.61892 32.09034,-53.00119 0,-49.06664 -53.69956,-75.33653 -87.13051,-42.62437 -23.45608,22.95179 -23.84034,61.54893 -0.84173,84.54755 11.86259,11.86258 21.71557,15.66156 38.54856,14.86301 7.34471,-0.34843 12.27048,-1.42405 17.33334,-3.785 z"
       id="path2043" />
  </g>
</svg>
