<?xml version="1.0" encoding="UTF-8" standalone="no"?>
<!-- Generator: Adobe Illustrator 19.0.0, SVG Export Plug-In . SVG Version: 6.00 Build 0)  -->

<svg
   xmlns:dc="http://purl.org/dc/elements/1.1/"
   xmlns:cc="http://creativecommons.org/ns#"
   xmlns:rdf="http://www.w3.org/1999/02/22-rdf-syntax-ns#"
   xmlns:svg="http://www.w3.org/2000/svg"
   xmlns="http://www.w3.org/2000/svg"
   xmlns:sodipodi="http://sodipodi.sourceforge.net/DTD/sodipodi-0.dtd"
   xmlns:inkscape="http://www.inkscape.org/namespaces/inkscape"
   version="1.1"
   id="Calque_1"
   x="0px"
   y="0px"
   viewBox="0 0 1784 356"
   xml:space="preserve"
   sodipodi:docname="logo.svg"
   inkscape:version="0.92.5 (0.92.5+68)"
   width="1784"
   height="356"><metadata
   id="metadata7460"><rdf:RDF><cc:Work
       rdf:about=""><dc:format>image/svg+xml</dc:format><dc:type
         rdf:resource="http://purl.org/dc/dcmitype/StillImage" /><dc:title></dc:title></cc:Work></rdf:RDF></metadata><defs
   id="defs7458" /><sodipodi:namedview
   pagecolor="#ffffff"
   bordercolor="#666666"
   borderopacity="1"
   objecttolerance="10"
   gridtolerance="10"
   guidetolerance="10"
   inkscape:pageopacity="0"
   inkscape:pageshadow="2"
   inkscape:window-width="1920"
   inkscape:window-height="1010"
   id="namedview7456"
   showgrid="false"
   inkscape:zoom="0.5"
   inkscape:cx="1259.4344"
   inkscape:cy="119.04958"
   inkscape:window-x="0"
   inkscape:window-y="34"
   inkscape:window-maximized="1"
   inkscape:current-layer="g7350"
   showguides="false" />
<style
   type="text/css"
   id="style7426">
	.st0{fill:#344358;}
	.st1{fill:#F39208;}
	.st2{fill:#FCC010;}
	.st3{fill:#F49619;}
	.st4{fill:#EC630E;}
	.st5{fill:#CBEAFC;}
	.st6{fill:#77C2E0;}
	.st7{fill:#F9DE6A;}
	.st8{fill:#C6781A;}
	.st9{fill:#010202;}
</style>






















<g
   id="g7350"
   transform="matrix(8.1311803,0,0,8.1311803,3034.8034,-103.91923)"><circle
   inkscape:export-ydpi="96"
   inkscape:export-xdpi="96"
   r="20.052301"
   cy="34.447083"
   cx="-335.02356"
   id="path60"
   style="fill:#5d5c74;fill-opacity:1;stroke-width:0.07877288" /><path
   inkscape:export-ydpi="96"
   inkscape:export-xdpi="96"
   inkscape:connector-curvature="0"
   d="m -334.90826,15.894861 c -0.90362,-9.12e-4 -1.805,0.04429 -2.46287,0.135699 -5.96991,0.829486 -11.11996,4.390878 -13.91566,9.623205 -0.24324,0.455249 -0.47163,0.816402 -0.50756,0.802404 -0.0359,-0.01396 -0.30017,-0.32197 -0.5872,-0.684388 -0.8208,-1.03639 -1.93917,-1.898373 -3.32252,-2.560983 -0.62235,-0.298103 -2.61339,-1.031493 -2.80029,-1.031493 -0.13599,0 -0.082,0.292804 0.21809,1.183957 0.62491,1.855629 1.40569,3.222238 2.51475,4.401167 0.35715,0.379663 0.63436,0.70532 0.61601,0.723682 -0.0183,0.01836 -0.34244,-0.04145 -0.72015,-0.132948 -2.3968,-0.580614 -5.00216,-0.35789 -7.769,0.664085 -1.22955,0.454153 -3.48206,1.585431 -3.48206,1.748887 0,0.163446 2.2525,1.294876 3.48206,1.749019 3.29302,1.216331 6.00472,1.294324 9.19122,0.264193 0.50246,-0.162432 0.93733,-0.295367 0.96639,-0.295367 0.0291,0 0.0299,0.570093 0.002,1.26687 -0.29536,7.328358 3.77872,14.139 10.39587,17.378851 1.83957,0.900677 4.07016,1.562606 6.03479,1.790671 v 2.53e-4 c 0.87334,0.101443 3.31177,0.102632 4.19762,0.002 8.0194,-0.910394 14.56301,-6.901851 16.13923,-14.777295 2.1125,-10.55498 -5.0474,-20.629959 -15.71406,-22.111798 -0.66696,-0.09287 -1.57287,-0.139772 -2.4765,-0.140677 z m 15.01762,14.984086 c 0.22243,-0.007 0.21461,0.09218 0.24716,0.289211 0.0851,0.514746 0.0658,1.919924 -0.0339,2.483048 -0.3102,1.751326 -1.17765,3.304774 -2.58469,4.628423 -2.46782,2.32154 -6.31839,3.740733 -11.0673,4.079079 -1.85579,0.132222 -3.48925,0.05506 -5.40672,-0.255417 -5.20092,-0.842126 -8.99997,-3.090677 -10.5934,-6.269904 -0.61819,-1.233425 -0.77359,-1.926725 -0.78315,-3.493453 -0.006,-0.912041 0.0232,-1.336497 0.0954,-1.408725 0.0805,-0.08056 0.3458,-0.04482 1.20243,0.162289 8.17893,1.977433 19.36156,2.032313 27.29532,0.133995 0.95382,-0.228228 1.40648,-0.34151 1.62891,-0.348546 z m -27.2005,2.208246 c -0.13713,0 -0.0253,0.823177 0.18941,1.394447 0.75103,1.998158 3.01273,3.697078 5.21352,3.916136 0.65848,0.06554 1.59676,-0.002 2.17537,-0.156525 0.42291,-0.112968 1.4268,-0.594111 1.84123,-0.882434 0.39748,-0.276536 1.5938,-1.453209 1.5938,-1.567607 0,-0.07022 -0.40761,-0.116544 -1.35279,-0.153774 -0.74402,-0.02933 -1.85519,-0.117404 -2.4693,-0.19582 -2.21317,-0.282501 -5.00504,-1.146099 -6.50947,-2.013474 -0.3253,-0.187549 -0.63207,-0.340949 -0.68177,-0.340949 z m 24.33079,0 c -0.0447,0 -0.3185,0.13894 -0.60842,0.308858 -2.14258,1.255732 -5.54476,2.102796 -8.99435,2.23942 -0.96919,0.03839 -1.39563,0.08564 -1.39563,0.154822 0,0.165293 1.12099,1.221677 1.72767,1.628121 0.91679,0.614192 1.83445,0.934637 2.91032,1.016299 2.27078,0.172302 4.90274,-1.352043 5.96851,-3.456778 0.37741,-0.745317 0.61483,-1.890742 0.3919,-1.890742 z"
   style="fill:#ff6600;stroke:#5d5c74;stroke-width:2.79526973;stroke-linecap:round;stroke-miterlimit:4;stroke-dasharray:none;stroke-opacity:1;paint-order:stroke fill markers"
   id="path31" /><path
   inkscape:export-ydpi="96"
   inkscape:export-xdpi="96"
   sodipodi:nodetypes="cacac"
   inkscape:connector-curvature="0"
   id="path871"
   d="m -367.19139,30.891624 c 0,0 4.43498,1.071366 6.56076,0.920266 2.21361,-0.157342 6.39674,-1.898567 6.39674,-1.898567 0,0 -3.93871,3.375867 -6.20359,3.517374 -2.14276,0.133877 -6.75391,-2.539076 -6.75391,-2.539076 z"
   style="fill:#5d5c74;fill-opacity:1;stroke:none;stroke-width:0.13858205px;stroke-linecap:butt;stroke-linejoin:miter;stroke-opacity:1" /><path
   inkscape:export-ydpi="96"
   inkscape:export-xdpi="96"
   sodipodi:nodetypes="cacsc"
   inkscape:connector-curvature="0"
   id="path875"
   d="m -337.54172,24.148357 c 0,0 8.09403,-6.066793 12.52783,-5.188613 3.00679,0.595537 6.51312,6.491383 6.51312,6.491383 0,0 -3.4837,-3.942336 -6.86233,-3.973247 -5.89618,-0.05394 -12.17862,2.670477 -12.17862,2.670477 z"
   style="fill:#5d5c74;fill-opacity:1;stroke:none;stroke-width:0.11363168px;stroke-linecap:butt;stroke-linejoin:miter;stroke-opacity:1" /><path
   inkscape:export-ydpi="96"
   inkscape:export-xdpi="96"
   sodipodi:nodetypes="cscsc"
   inkscape:connector-curvature="0"
   id="path879"
   d="m -353.65475,38.07008 c 0,0 2.60705,11.568239 7.20348,11.77441 11.13882,0.499627 20.92562,-4.565859 20.92562,-4.565859 0,0 -10.53556,3.350858 -19.42711,2.577545 -5.7406,-0.49927 -8.70199,-9.786096 -8.70199,-9.786096 z"
   style="fill:#5d5c74;fill-opacity:1;stroke:none;stroke-width:0.0607917px;stroke-linecap:butt;stroke-linejoin:miter;stroke-opacity:1" /><path
   inkscape:export-ydpi="96"
   inkscape:export-xdpi="96"
   id="path885"
   d="m -347.09114,33.087193 c -0.13713,0 -0.0253,0.823176 0.1894,1.394447 0.75103,1.998158 3.01273,3.697078 5.21353,3.916136 0.65847,0.06554 1.59676,-0.002 2.17536,-0.156525 0.42292,-0.112968 1.42681,-0.59411 1.84124,-0.882434 0.39747,-0.276536 1.5938,-1.453209 1.5938,-1.567607 0,-0.07022 -0.40762,-0.116544 -1.3528,-0.153774 -0.74401,-0.02933 -1.85518,-0.117404 -2.46929,-0.19582 -2.21318,-0.282501 -5.00504,-1.146099 -6.50947,-2.013474 -0.32531,-0.187549 -0.63207,-0.340949 -0.68177,-0.340949 z m 24.33078,0 c -0.0447,0 -0.31849,0.13894 -0.60841,0.308858 -2.14258,1.255732 -5.54476,2.102795 -8.99436,2.23942 -0.96918,0.03839 -1.39562,0.08564 -1.39562,0.154822 0,0.165293 1.12098,1.221677 1.72767,1.628121 0.91679,0.614192 1.83444,0.934637 2.91031,1.016299 2.27079,0.172302 4.90275,-1.352043 5.96851,-3.456778 0.37742,-0.745317 0.61483,-1.890742 0.3919,-1.890742 z"
   style="fill:#f2f2f2;stroke:#5d5c74;stroke-width:0.0670634px;stroke-linecap:butt;stroke-linejoin:miter;stroke-opacity:1"
   inkscape:connector-curvature="0" />
<text
   id="text7318"
   y="46.904884"
   x="-311.74048"
   style="font-style:normal;font-weight:normal;font-size:35.18877411px;line-height:1.25;font-family:sans-serif;letter-spacing:0px;word-spacing:0px;fill:#000000;fill-opacity:1;stroke:#ff6600;stroke-width:1.06494796;stroke-miterlimit:4;stroke-dasharray:none;stroke-opacity:1"
   xml:space="preserve"><tspan
     style="font-style:normal;font-variant:normal;font-weight:bold;font-stretch:normal;font-family:'Fira Code';-inkscape-font-specification:'Fira Code Bold';fill:#ff6600;stroke:#ff6600;stroke-width:1.06494796;stroke-miterlimit:4;stroke-dasharray:none;stroke-opacity:1"
     y="46.904884"
     x="-311.74048"
     id="tspan7316"
     sodipodi:role="line">pen</tspan></text>

<text
   id="text7304"
   y="46.948254"
   x="-246.75194"
   style="font-style:normal;font-weight:normal;font-size:35.18877411px;line-height:1.25;font-family:sans-serif;letter-spacing:0px;word-spacing:0px;fill:#5d5c74;fill-opacity:1;stroke:#5d5c74;stroke-width:0.76410747;stroke-opacity:1;"
   xml:space="preserve"><tspan
     style="font-style:normal;font-variant:normal;font-weight:bold;font-stretch:normal;font-size:35.18877411px;font-family:'Fira Code';-inkscape-font-specification:'Fira Code Bold';fill:#5d5c74;fill-opacity:1;stroke:#5d5c74;stroke-width:0.76410747;stroke-opacity:1;"
     y="46.948254"
     x="-246.75194"
     id="tspan7302"
     sodipodi:role="line">kata</tspan></text>
</g></svg>