<?xml version="1.0" encoding="UTF-8" standalone="no"?>
<!-- Generator: Adobe Illustrator 19.0.0, SVG Export Plug-In . SVG Version: 6.00 Build 0)  -->

<svg
   xmlns:dc="http://purl.org/dc/elements/1.1/"
   xmlns:cc="http://creativecommons.org/ns#"
   xmlns:rdf="http://www.w3.org/1999/02/22-rdf-syntax-ns#"
   xmlns:svg="http://www.w3.org/2000/svg"
   xmlns="http://www.w3.org/2000/svg"
   xmlns:sodipodi="http://sodipodi.sourceforge.net/DTD/sodipodi-0.dtd"
   xmlns:inkscape="http://www.inkscape.org/namespaces/inkscape"
   version="1.1"
   id="Calque_1"
   x="0px"
   y="0px"
   viewBox="0 0 800 600"
   style="enable-background:new 0 0 800 600;"
   xml:space="preserve"
   sodipodi:docname="worker.svg"
   inkscape:version="0.92.5 (0.92.5+68)"><metadata
   id="metadata1131"><rdf:RDF><cc:Work
       rdf:about=""><dc:format>image/svg+xml</dc:format><dc:type
         rdf:resource="http://purl.org/dc/dcmitype/StillImage" /><dc:title /></cc:Work></rdf:RDF></metadata><defs
   id="defs1129" /><sodipodi:namedview
   pagecolor="#ffffff"
   bordercolor="#666666"
   borderopacity="1"
   objecttolerance="10"
   gridtolerance="10"
   guidetolerance="10"
   inkscape:pageopacity="0"
   inkscape:pageshadow="2"
   inkscape:window-width="1920"
   inkscape:window-height="1010"
   id="namedview1127"
   showgrid="false"
   showborder="false"
   inkscape:zoom="0.6825"
   inkscape:cx="210.45035"
   inkscape:cy="249.97602"
   inkscape:window-x="0"
   inkscape:window-y="34"
   inkscape:window-maximized="1"
   inkscape:current-layer="XMLID_2188_" />
<style
   type="text/css"
   id="style1081">
	.st0{fill:none;stroke:#5D5C74;stroke-width:4;stroke-miterlimit:10;}
	.st1{fill:#4FC1EA;stroke:#5D5C74;stroke-width:3;stroke-miterlimit:10;}
	.st2{fill:#5C5C74;}
	.st3{fill:#344258;stroke:#5D5C74;stroke-width:4;stroke-miterlimit:10;}
	.st4{fill:#FBD7CE;}
	.st5{fill:#E4E6E9;}
	.st6{fill:#CDCFD2;}
	.st7{fill:#5D5C74;}
	.st8{fill:#FFFFFF;}
	.st9{fill:#DFE1E2;}
	.st10{fill:#EDEEEF;}
	.st11{fill:none;stroke:#5D5C74;stroke-width:3;stroke-miterlimit:10;}
	.st12{fill:none;stroke:#F39200;stroke-width:3;stroke-miterlimit:10;}
	.st13{fill:none;stroke:#4FC1EB;stroke-width:3;stroke-miterlimit:10;}
</style>
<g
   id="XMLID_2188_">
	<line
   id="XMLID_7309_"
   class="st0"
   x1="50.3"
   y1="513.7"
   x2="759.5"
   y2="513.7" />
	<path
   id="XMLID_7308_"
   class="st1"
   d="M626.4,232.3c23.9,74.6-11.4,131.2-103.2,131.2c-97,0-125.1-56.4-102.2-131.2   c14.5-47.2,9-98.5,23.7-122c20.8-33.1,40.1-46,78.4-46c36.1,0,59.5,11.5,74.3,43.7C609.6,134.2,610.9,183.9,626.4,232.3z"
   style="fill:#ff6600" />
	<path
   id="XMLID_7305_"
   class="st2"
   d="M522.5,363.4c-45.8,0-78-12.2-95.9-36.4c-17.1-23.2-19.7-56.5-7.5-96.5   c6.7-22,9.1-45,11.3-65.4c2.5-23.7,4.6-44.1,12.6-56.9c21.9-34.9,42-46.6,79.5-46.6c38.6,0,61.1,13.3,75.5,44.5   c6.2,13.5,9.6,32.8,13.4,55.2c3.7,21.4,7.9,45.6,15.5,69.3c12.1,37.8,9.3,70.5-8.2,94.4C600.4,350.1,567.1,363.4,522.5,363.4z    M522.5,64.1c-36.5,0-56,11.5-77.4,45.4c-7.7,12.3-9.8,32.4-12.2,55.8c-2.1,20.5-4.6,43.7-11.4,65.9c-12,39.1-9.5,71.7,7.1,94.2   c17.3,23.5,48.9,35.3,93.8,35.3c43.8,0,76.3-12.9,94.2-37.4c17-23.2,19.7-55.1,7.8-92.1c-7.7-23.9-11.9-48.2-15.6-69.6   c-3.9-22.2-7.2-41.3-13.2-54.5C581.8,77,559.9,64.1,522.5,64.1z" />
	<path
   id="XMLID_7304_"
   class="st3"
   d="M392,406.9c0-54.9,59.2-99.5,132.2-99.5s132.2,44.5,132.2,99.5" />
	<path
   id="XMLID_7303_"
   class="st4"
   d="M553.8,156c-28.4,0-52.9-11.6-64.6-28.4c-4.7,18.9-18,33-34,35c0,17.7,0,45.8,0,61.2   c0,23.6,14.8,53,37.9,67.8v23.6c0,13.2,8.3,31.7,30.2,31.7c21.3,0,30.6-18.5,30.6-31.7v-22c24.7-14.2,38-45,38-69.5   c0-23.6,0-77.2,0-77.2c0-0.2,0-0.3,0-0.5C587.8,154,577.9,156,553.8,156z" />
	<path
   id="XMLID_7300_"
   class="st2"
   d="M523.1,347.5c-23.1,0-31.4-19.7-31.4-33v-23c-22-14.4-37.9-43.1-37.9-68.5v-61.2   c0-0.6,0.5-1.2,1.1-1.3c15.3-1.9,28.2-15.2,32.9-34c0.1-0.5,0.5-0.9,1-1c0.5-0.1,1,0.1,1.3,0.5c12,17.1,36.3,27.8,63.5,27.8   c24.7,0,33.3-2.1,36.9-9.1c0.3-0.5,0.9-0.8,1.4-0.7c0.6,0.1,1,0.6,1,1.2l0,0.5v77.2c0,23.1-11.9,54.8-38,70.2v21.2   C555,328.2,545.1,347.5,523.1,347.5z M456.3,162.9v60.1c0,24.8,15.7,52.9,37.3,66.7c0.4,0.2,0.6,0.6,0.6,1.1v23.6   c0,12.2,7.7,30.4,28.9,30.4c20.2,0,29.3-17.8,29.3-30.4v-22c0-0.5,0.2-0.9,0.6-1.1c24.5-14.1,37.3-45.1,37.3-68.4v-73.7   c-5.8,6-17.2,7.1-36.8,7.1c-26.9,0-51.1-10.2-64.1-26.7C484.2,147.7,471.5,160.5,456.3,162.9z" />
	<g
   id="XMLID_7298_">
		<path
   id="XMLID_7299_"
   class="st2"
   d="M537.5,248.2c0,0-5.9,6.8-13.2,6.8c-7.3,0-13.2-6.8-13.2-6.8s5.9,0.8,13.2,0.8    C531.6,249,537.5,248.2,537.5,248.2z" />
	</g>
	<g
   id="XMLID_7296_">
		<path
   id="XMLID_7297_"
   class="st2"
   d="M525,229.8c-0.1,0-0.2,0-0.3,0c-2.1-0.1-3.9-0.9-4.9-2.3c-0.8-1.1-1-2.5-0.6-3.9l1.2,0.4    c-0.3,1-0.2,1.9,0.4,2.7c0.8,1.1,2.2,1.8,3.9,1.8c2,0,3.8-0.7,4.7-1.9c0.6-0.8,0.6-1.8,0.2-2.9l1.2-0.5c0.8,1.9,0.3,3.3-0.3,4.1    C529.5,228.8,527.3,229.8,525,229.8z" />
	</g>
	<path
   id="XMLID_7295_"
   class="st5"
   d="M670.3,378.6v156.6c0,8.1-6.6,14.7-14.7,14.7H390.2c-8.1,0-14.7-6.6-14.7-14.7V378.4   c0-8.1,6.6-14.7,14.7-14.7h265.4C663.7,363.9,670.3,370.5,670.3,378.6" />
	<path
   id="XMLID_7294_"
   class="st6"
   d="M670.3,518.1v17.2c0,8.1-6.6,14.7-14.7,14.7H390.2c-8.1,0-14.7-6.6-14.7-14.7v-17.3   L670.3,518.1z" />
	<path
   id="XMLID_7293_"
   class="st7"
   d="M375.5,460c-1.7,0-3.1-1.4-3.1-3.1v-31c0-1.7,1.6-2.9,3.1-2.9c1.6,0,2.9,1.4,2.9,2.9v31   C378.6,458.6,377.2,460,375.5,460" />
	<path
   id="XMLID_7292_"
   class="st7"
   d="M655.6,553.2H390.2c-9.9,0-17.8-8-17.8-17.8V476c0-1.7,1.6-2.9,3.1-2.9   c1.6,0,2.9,1.4,2.9,2.9v59.4c0,6.4,5.2,11.8,11.6,11.8h265.6c6.4,0,11.6-5.2,11.6-11.8V378.6c0-6.4-5.2-11.8-11.6-11.8H390.2   c-6.4,0-11.6,5.2-11.6,11.8v30.8c0,1.7-1.4,3.1-3.1,3.1c-1.7,0-3.1-1.4-3.1-3.1v-30.8c0-9.9,8-17.8,17.8-17.8h265.4   c9.9,0,17.8,8,17.8,17.8v156.6C673.4,545.1,665.5,553.2,655.6,553.2" />
	<path
   id="XMLID_7288_"
   class="st8"
   d="M650.2,428.5c-1.4,0-2.4-1-2.4-2.4v-28.2c0-6.8-5.5-12.3-12.3-12.3h-31.7   c-1.4,0-2.4-1-2.4-2.4c0-1.4,1-2.4,2.4-2.4h31.7c9.5,0,17.2,7.8,17.2,17.2v28.2C652.8,427.3,651.6,428.5,650.2,428.5 M586.3,385.5   h-22.2c-1.4,0-2.4-1-2.4-2.4c0-1.4,1-2.4,2.4-2.4h22.2c1.4,0,2.4,1,2.4,2.4C588.7,384.3,587.7,385.5,586.3,385.5 M531.4,469.4   c11.6,13.9,2.8,20.1-8.3,20.1s-20.1-9-20.1-20.1c0-11.1,9-20.1,20.1-20.1S539.4,459.3,531.4,469.4" />
	<path
   id="XMLID_7285_"
   class="st7"
   d="M522.9,452.2c-9.4,0-17,7.6-17,17c0,9.4,7.6,17,17,17c5.2,0,9.4-1.6,10.4-4   c1.2-2.4-0.3-6.4-4.3-11.1c-0.9-1-1-2.8,0-4c3.1-3.8,4-7.8,2.4-10.7C530.2,454,526.9,452.2,522.9,452.2 M522.9,492.6   c-12.8,0-23.2-10.4-23.2-23.2c0-12.8,10.4-23.2,23.2-23.2c6.4,0,11.6,2.9,14,7.8c2.3,4.5,1.6,10-1.7,15.2   c4.5,6.1,5.9,11.4,3.8,15.8C536.8,489.8,530.7,492.6,522.9,492.6" />
	<path
   id="XMLID_7284_"
   class="st7"
   d="M519.8,440.3c-1.7,0-3.1-1.4-3.1-3.1c0-0.3,0-0.5,0.2-0.9c0.2-0.3,2.8-9.7,10.6-12   c1.6-0.5,3.3,0.5,3.8,2.3c0.3,1.6-0.5,3.3-2.1,3.6c-4.3,1.4-6.4,7.6-6.4,7.8C522.4,439.4,521.2,440.3,519.8,440.3" />
	<path
   id="XMLID_7283_"
   class="st9"
   d="M225,530.6h43v-64.1h-43V530.6z" />
	<path
   id="XMLID_7280_"
   class="st7"
   d="M228.1,527.5H265v-57.9h-36.9L228.1,527.5z M268.1,533.7h-43c-1.7,0-3.1-1.4-3.1-3.1v-64.1   c0-1.7,1.4-3.1,3.1-3.1h43c1.7,0,3.1,1.4,3.1,3.1v64.1C271,532.3,269.8,533.7,268.1,533.7z" />
	<path
   id="XMLID_7275_"
   class="st7"
   d="M268.1,522.1c-1.7,0-3.1-1.4-3.1-3.1c0-1.7,1.4-3.1,3.1-3.1c9.5,0,17.3-7.8,17.3-17.3   c0-9.5-7.8-17.3-17.3-17.3c-1.7,0-3.1-1.4-3.1-3.1c0-1.7,1.4-3.1,3.1-3.1c13,0,23.4,10.6,23.4,23.6   C291.5,511.6,280.9,522.1,268.1,522.1 M246.6,458.5c-0.5,0-1-0.2-1.4-0.7c-0.5-0.7-5.5-7.6-4.5-12.3c0.5-2.1,1.7-3.6,3.1-5.2   c1.6-1.9,3.1-3.6,3.3-6.6c0.2-1,1-1.7,2.1-1.7c1,0.2,1.7,1,1.7,2.1c-0.3,4.2-2.4,6.6-4.2,8.7c-1,1.2-2.1,2.4-2.3,3.6   c-0.5,2.4,2.4,7.3,3.8,9.2c0.7,0.9,0.5,1.9-0.3,2.6C247.3,458.4,247,458.5,246.6,458.5 M236,457.2c-0.2,0-0.3,0-0.5-0.2   c-0.3-0.3-3.8-2.6-4.2-5c-0.2-1,0.2-2.1,0.7-2.9c0.5-1.2,0.9-2.3,0.5-3.6c-0.2-0.5,0.2-1,0.7-1c0.5-0.2,1,0.2,1,0.7   c0.5,2.1-0.2,3.5-0.5,4.7c-0.3,0.7-0.5,1.4-0.5,2.1c0.2,1,2.1,2.8,3.3,3.8c0.3,0.3,0.5,0.9,0.2,1.2   C236.6,457,236.4,457.2,236,457.2 M257.2,457.5c-0.3,0-0.7-0.2-0.9-0.7c-0.2-0.5-1.6-4.5-0.3-6.6c0.5-0.9,1.4-1.6,2.3-2.1   c1-0.7,1.9-1.2,2.6-2.6c0.2-0.5,0.7-0.7,1.2-0.3c0.3,0.2,0.7,0.7,0.5,1.2c-0.9,1.9-2.3,2.8-3.3,3.5c-0.7,0.5-1.4,0.9-1.6,1.4   c-0.5,1,0,3.5,0.5,5c0.2,0.5,0,1-0.5,1.2H257.2" />
	<path
   id="XMLID_7271_"
   class="st8"
   d="M239.4,517.3c-1.5,0-2.7-1.1-2.7-2.7v-20c0-1.5,1.1-2.7,2.7-2.7c1.5,0,2.7,1.1,2.7,2.7v20   C242.1,516.2,240.9,517.3,239.4,517.3C239.4,517.5,239.4,517.5,239.4,517.3 M239.4,540.1c-1.5,0-2.7-1.1-2.7-2.7v-10.1   c0-1.5,1.1-2.7,2.7-2.7c1.5,0,2.7,1.1,2.7,2.7v10.1C242.1,538.8,240.9,540.1,239.4,540.1" />
	<path
   id="XMLID_7270_"
   class="st6"
   d="M229.1,268.6L179,318.8c0,0-11.6-10.7-13.3-19.9c0,0-8.3-21.2,10.6-37.9c0,0,11-13,34.1-7.4   C210.4,253.6,223,257.8,229.1,268.6z" />
	<path
   id="XMLID_7269_"
   class="st7"
   d="M109.9,233.2c0.1-0.5,0.5-0.8,0.9-1c0.4-0.2,0.9-0.2,1.4,0l59.9,26.3   c0.2,0.1,0.4,0.2,0.6,0.4c15.5-14.2,39.6-13.9,54.6,1.1c2.3,2.3,4.3,4.9,5.9,7.6l0,0c0.7,0.8,0.7,2-0.1,2.7l-4.2,4.2h-5.7l5.8-5.8   c-1.3-2-2.9-4-4.6-5.8c-13.8-13.8-36.3-13.8-50.2,0c-9.7,9.7-12.6,23.8-8.6,36.1c0,0,0,0,0,0c0.2,0.7,0.1,1.4-0.5,1.9   c-0.8,0.8-2,0.8-2.8,0c-0.1-0.1-0.2-0.3-0.3-0.4c0,0-0.1,0-0.1-0.1c0,0,0-0.1,0-0.1c0-0.1-0.1-0.2-0.1-0.3   c-4.2-13.1-1.4-27.9,8.3-38.6l-57.6-25.3l-23.3,74.2h-3.6L109.9,233.2z" />
	<path
   id="XMLID_7265_"
   class="st7"
   d="M112.8,532.3c-0.5,0-1-0.2-1.3-0.6l-39.4-48.4h4.4l37.1,45.6h64.2c0.9,0,1.7,0.8,1.7,1.7v9   c0,0.9-0.8,1.7-1.7,1.7l-137.5,1.4c0,0,0,0,0,0c-0.9,0-1.7-0.8-1.7-1.7c0-0.9,0.7-1.7,1.7-1.7l135.8-1.4v-5.6H112.8z" />
	<path
   id="XMLID_7263_"
   class="st7"
   d="M181.8,321.6c-0.8,0.8-2.1,0.8-2.8,0c-0.8-0.8-0.8-2.1,0-2.8l10.3-10.3v5.7L181.8,321.6z" />
	<path
   id="XMLID_7262_"
   class="st10"
   d="M220.4,308.9c-7.4,7.4-19.1,7.7-27,1.1l28-28C228.1,289.8,227.8,301.5,220.4,308.9z" />
	<path
   id="XMLID_7256_"
   class="st7"
   d="M228.9,274.5h-5.7l-34,34v5.7l1.3-1.3c9.4,8.2,23.7,7.9,32.6-1.1c8.9-8.9,9.3-23.2,1.1-32.6   L228.9,274.5z M221.5,282c6.6,7.8,6.3,19.6-1.1,27c-7.4,7.4-19.1,7.7-27,1.1L221.5,282z" />
	<path
   id="XMLID_7255_"
   class="st5"
   d="M50.2,473.7c-11.2,0-20.2-9.1-20.2-20.2c0-11.2,9.1-20.2,20.2-20.2   c11.2,0,20.2,9.1,20.2,20.2C70.4,464.7,61.3,473.7,50.2,473.7z" />
	<path
   id="XMLID_7251_"
   class="st7"
   d="M72.2,483.3h4.4l-10.2-12.6c4.6-4.3,7.5-10.4,7.5-17.2c0-10.1-6.4-18.7-15.3-22.1l2.8-8.9   h-3.6l-2.5,7.9c-1.6-0.4-3.4-0.6-5.1-0.6c-13,0-23.6,10.6-23.6,23.6c0,13,10.6,23.6,23.6,23.6c5,0,9.7-1.6,13.5-4.3L72.2,483.3z    M50.2,473.7c-11.2,0-20.2-9.1-20.2-20.2c0-11.2,9.1-20.2,20.2-20.2c11.2,0,20.2,9.1,20.2,20.2C70.4,464.7,61.3,473.7,50.2,473.7z" />
	<rect
   id="XMLID_7247_"
   x="40.3"
   y="532.3"
   class="st6"
   width="135.8"
   height="7" />
	<line
   id="XMLID_7245_"
   class="st11"
   x1="56.4"
   y1="432.3"
   x2="88.2"
   y2="307.8" />
	<g
   id="XMLID_7240_">
		<path
   id="XMLID_7243_"
   class="st2"
   d="M475.8,189.7c-0.6,0-1.3-0.2-1.8-0.7c-1.1-1-1.1-2.6-0.1-3.7c3.3-3.5,7.9-5.3,12.3-4.9    c3.7,0.3,6.8,2.2,8.7,5.1c0.8,1.2,0.4,2.8-0.8,3.6c-1.2,0.8-2.8,0.4-3.6-0.8c-1-1.6-2.7-2.5-4.7-2.7c-2.8-0.3-5.8,1-8,3.3    C477.2,189.4,476.5,189.7,475.8,189.7z" />
	</g>
	<g
   id="XMLID_7234_">
		<path
   id="XMLID_7235_"
   class="st2"
   d="M574.4,189.7c-0.7,0-1.4-0.3-1.9-0.8c-2.2-2.3-5.4-3.6-8.6-3.4c-2.6,0.1-4.8,1.2-6.2,3    c-0.9,1.2-2.5,1.4-3.7,0.5c-1.1-0.9-1.4-2.5-0.5-3.7c2.3-3,5.9-4.8,10-5.1c4.8-0.3,9.4,1.6,12.7,5c1,1,1,2.7-0.1,3.7    C575.7,189.4,575.1,189.7,574.4,189.7z" />
	</g>
	
	
	
	
	
	
	
<g
   id="g1574"
   transform="matrix(0.05534914,-0.01564948,0.01564948,0.05534914,395.14094,428.37332)"
   style="stroke:#5d5c74;stroke-opacity:1"><circle
     inkscape:export-ydpi="96"
     inkscape:export-xdpi="96"
     r="299.00513"
     cy="106.83835"
     cx="818.11108"
     id="path60"
     style="fill:#5d5c74;stroke-width:1.1746031;stroke:#5d5c74;stroke-opacity:1;fill-opacity:1" /><path
     inkscape:export-ydpi="96"
     inkscape:export-xdpi="96"
     inkscape:connector-curvature="0"
     d="m 819.8304,-169.79869 c -13.4742,-0.0136 -26.9149,0.66039 -36.7247,2.02344 -89.0188,12.36868 -165.81248,65.47353 -207.49995,143.49414 -3.62706,6.78834 -7.03264,12.17359 -7.56835,11.96485 -0.53568,-0.20815 -4.47595,-4.80097 -8.75588,-10.20508 -12.23921,-15.45389 -28.91551,-28.30714 -49.54296,-38.1875 -9.2801,-4.44509 -38.96897,-15.38086 -41.75584,-15.38086 -2.02783,0 -1.22309,4.36608 3.25194,17.6543 9.31824,27.66977 20.96066,48.04763 37.49806,65.626949 5.32562,5.661261 9.45917,10.517221 9.18553,10.791011 -0.27363,0.2738 -5.10618,-0.618 -10.73828,-1.98242 -35.73932,-8.657681 -74.58863,-5.33659 -115.84569,9.90235 -18.33418,6.772 -51.9219,23.64077 -51.9219,26.07811 0,2.43719 33.58768,19.30823 51.9219,26.08008 49.10313,18.137038 89.53799,19.300008 137.05274,3.93946 7.49234,-2.42207 13.9768,-4.4043 14.41013,-4.4043 0.4332,0 0.44613,8.50081 0.0265,18.890628 -4.40409,109.275082 56.34558,210.830342 155.01565,259.140612 27.4303,13.43023 60.6912,23.30043 89.9863,26.70117 v 0.004 c 13.0226,1.51264 49.3826,1.53037 62.5918,0.0302 119.5793,-13.57532 217.1528,-102.9155 240.6562,-220.34832 31.5001,-157.388081 -75.2631,-307.61873 -234.3164,-329.71483 -9.9452,-1.38476 -23.4535,-2.08418 -36.9277,-2.09766 z M 1043.762,53.63295 c 3.3167,-0.10492 3.2001,1.37455 3.6855,4.3125 1.2682,7.67551 0.9814,28.62849 -0.5058,37.025388 -4.6255,26.114472 -17.5603,49.278352 -38.541,69.015622 -36.7983,34.6171 -94.2152,55.77906 -165.0274,60.82422 -27.6722,1.97159 -52.0291,0.82103 -80.6211,-3.8086 C 685.2,208.44493 628.5514,174.91619 604.7913,127.5099 595.57326,109.11799 593.25603,98.779998 593.11358,75.41811 c -0.0828,-13.59968 0.34545,-19.92885 1.42186,-21.00586 1.20068,-1.2012 5.15637,-0.66832 17.9297,2.41992 121.95826,29.48602 288.70536,30.30435 407.00776,1.99804 14.2227,-3.40317 20.9724,-5.09234 24.2891,-5.19726 z M 638.1682,86.56068 c -2.0448,0 -0.3775,12.274608 2.8243,20.79297 11.1988,29.79506 44.9236,55.1281 77.7402,58.39453 9.8188,0.97733 23.8098,-0.0295 32.4375,-2.33399 6.3061,-1.68449 21.2754,-8.85893 27.4551,-13.1582 5.9268,-4.1235 23.7656,-21.66917 23.7656,-23.375 0,-1.04705 -6.078,-1.73782 -20.1719,-2.29297 -11.0942,-0.4373 -27.6632,-1.75064 -36.8203,-2.91992 -33.0013,-4.21244 -74.6315,-17.08978 -97.0644,-30.02343 -4.8507,-2.7966 -9.425,-5.08399 -10.1661,-5.08399 z m 362.8028,0 c -0.6667,0 -4.7492,2.07177 -9.0723,4.60547 -31.9486,18.72455 -82.6794,31.35534 -134.1172,33.39258 -14.4518,0.57239 -20.8105,1.27696 -20.8105,2.30859 0,2.46472 16.7153,18.21674 25.7617,24.27735 13.6705,9.15836 27.3539,13.93661 43.3965,15.15429 33.8602,2.56924 73.1061,-20.16066 88.998,-51.54492 5.6278,-11.11363 9.1679,-28.19336 5.8438,-28.19336 z"
     style="fill:#ff6600;stroke:#5d5c74;stroke-width:41.68099976;stroke-linecap:round;stroke-miterlimit:4;stroke-dasharray:none;stroke-opacity:1;paint-order:stroke fill markers"
     id="path31" /><path
     inkscape:export-ydpi="96"
     inkscape:export-xdpi="96"
     sodipodi:nodetypes="cacac"
     inkscape:connector-curvature="0"
     id="path871"
     d="m 338.44816,53.82197 c 0,0 66.13103,15.97542 97.82917,13.72233 33.00771,-2.34616 95.38344,-28.31003 95.38344,-28.31003 0,0 -58.73121,50.33844 -92.50333,52.44848 C 407.20611,93.67902 338.44812,53.82192 338.44812,53.82192 Z"
     style="fill:#5d5c74;stroke:#5d5c74;stroke-width:2.06643319px;stroke-linecap:butt;stroke-linejoin:miter;stroke-opacity:1;fill-opacity:1" /><path
     inkscape:export-ydpi="96"
     inkscape:export-xdpi="96"
     sodipodi:nodetypes="cacsc"
     inkscape:connector-curvature="0"
     id="path875"
     d="m 780.5621,-46.72865 c 0,0 120.6922,-90.46355 186.8058,-77.36878 44.835,8.88022 97.1188,96.79473 97.1188,96.79473 0,0 -51.9463,-58.78522 -102.326,-59.24614 -87.9195,-0.80435 -181.5986,39.82019 -181.5986,39.82019 z"
     style="fill:#5d5c74;stroke:#5d5c74;stroke-width:1.69439185px;stroke-linecap:butt;stroke-linejoin:miter;stroke-opacity:1;fill-opacity:1" /><path
     inkscape:export-ydpi="96"
     inkscape:export-xdpi="96"
     sodipodi:nodetypes="cscsc"
     inkscape:connector-curvature="0"
     id="path879"
     d="m 540.29643,160.86182 c 0,0 38.8744,172.49705 107.41297,175.57132 166.0939,7.45007 312.0275,-68.08272 312.0275,-68.08272 0,0 -157.0986,49.96552 -289.6828,38.43444 C 584.45454,299.34012 540.29643,160.86182 540.29643,160.86182 Z"
     style="fill:#5d5c74;stroke:#5d5c74;stroke-width:0.90648097px;stroke-linecap:butt;stroke-linejoin:miter;stroke-opacity:1;fill-opacity:1" /><path
     inkscape:export-ydpi="96"
     inkscape:export-xdpi="96"
     id="path885"
     d="m 638.1682,86.56068 c -2.0449,0 -0.3776,12.2746 2.8242,20.79297 11.1988,29.79506 44.9237,55.1281 77.7402,58.39453 9.8188,0.97732 23.8098,-0.0295 32.4375,-2.33399 6.3062,-1.68449 21.2755,-8.85893 27.4551,-13.1582 5.9269,-4.1235 23.7656,-21.66918 23.7656,-23.375 0,-1.04706 -6.078,-1.73782 -20.1718,-2.29297 -11.0942,-0.4373 -27.6632,-1.75064 -36.8203,-2.91992 -33.0013,-4.21244 -74.6316,-17.08978 -97.0645,-30.02344 -4.8507,-2.7966 -9.425,-5.08398 -10.166,-5.08398 z m 362.8027,0 c -0.6667,0 -4.7492,2.07176 -9.0722,4.60547 -31.9487,18.72454 -82.6794,31.35533 -134.1172,33.39258 -14.4518,0.57239 -20.8106,1.27696 -20.8106,2.30859 0,2.46472 16.7153,18.21674 25.7617,24.27734 13.6705,9.15837 27.354,13.93661 43.3965,15.1543 33.8603,2.56924 73.1062,-20.16067 88.9981,-51.54492 5.6277,-11.11363 9.1678,-28.19336 5.8437,-28.19336 z"
     style="fill:#f2f2f2;stroke:#5d5c74;stroke-width:0.99999994px;stroke-linecap:butt;stroke-linejoin:miter;stroke-opacity:1"
     inkscape:connector-curvature="0" /></g></g>
</svg>